<svg xmlns="http://www.w3.org/2000/svg" viewBox="0 17.200000762939453 189.4499969482422 36.75" data-asc="1.069" width="189.4499969482422" height="36.75"><defs/><g fill="#000000"><g transform="translate(0, 0)"><path d="M15.75 53.45L4.00 22.15L3.80 22.15Q3.95 23.70 4.05 26.32Q4.15 28.95 4.15 31.80L4.15 53.45L0 53.45L0 17.75L6.65 17.75L17.65 47.00L17.85 47.00L29.05 17.75L35.65 17.75L35.65 53.45L31.20 53.45L31.20 31.50Q31.20 28.90 31.33 26.35Q31.45 23.80 31.55 22.20L31.35 22.20L19.45 53.45L15.75 53.45ZM86.35 17.75L76.85 53.45L72.30 53.45L65.35 30.05Q64.95 28.60 64.55 27.15Q64.15 25.70 63.90 24.57Q63.65 23.45 63.55 23.00Q63.50 23.65 63.03 25.77Q62.55 27.90 61.85 30.20L55.10 53.45L50.55 53.45L41.10 17.75L45.80 17.75L51.35 39.55Q51.95 41.85 52.38 44.00Q52.80 46.15 53.05 48.05Q53.30 46.10 53.80 43.80Q54.30 41.50 54.95 39.30L61.25 17.75L65.90 17.75L72.45 39.45Q73.15 41.75 73.65 44.02Q74.15 46.30 74.40 48.05Q74.65 46.20 75.10 44.02Q75.55 41.85 76.15 39.50L81.65 17.75L86.35 17.75ZM120.45 35.25Q120.45 44.30 115.53 48.87Q110.60 53.45 101.80 53.45L91.85 53.45L91.85 17.75L102.85 17.75Q108.25 17.75 112.20 19.75Q116.15 21.75 118.30 25.62Q120.45 29.50 120.45 35.25M115.70 35.40Q115.70 28.25 112.17 24.92Q108.65 21.60 102.20 21.60L96.35 21.60L96.35 49.60L101.20 49.60Q115.70 49.60 115.70 35.40ZM149.75 53.45L145.45 42.40L131.30 42.40L127.05 53.45L122.50 53.45L136.45 17.60L140.50 17.60L154.40 53.45L149.75 53.45M140.10 27.60Q139.95 27.20 139.60 26.15Q139.25 25.10 138.93 23.97Q138.60 22.85 138.40 22.25Q138.05 23.80 137.60 25.27Q137.15 26.75 136.85 27.60L132.80 38.40L144.10 38.40L140.10 27.60ZM189.45 35.55Q189.45 41.10 187.57 45.22Q185.70 49.35 182.05 51.65Q178.40 53.95 173 53.95Q167.45 53.95 163.77 51.65Q160.10 49.35 158.30 45.20Q156.50 41.05 156.50 35.50Q156.50 30.00 158.30 25.90Q160.10 21.80 163.77 19.50Q167.45 17.20 173.05 17.20Q178.40 17.20 182.05 19.47Q185.70 21.75 187.57 25.87Q189.45 30.00 189.45 35.55M161.25 35.55Q161.25 42.30 164.10 46.17Q166.95 50.05 173 50.05Q179.10 50.05 181.90 46.17Q184.70 42.30 184.70 35.55Q184.70 28.80 181.90 24.97Q179.10 21.15 173.05 21.15Q167 21.15 164.13 24.97Q161.25 28.80 161.25 35.55Z"/></g></g></svg>